<svg width="1400" height="900" viewBox="0 0 1400 900" fill="none" xmlns="http://www.w3.org/2000/svg">
  <defs>
    <linearGradient id="panel" x1="0" y1="0" x2="1" y2="1">
      <stop offset="0" stop-color="#0E2731" />
      <stop offset="1" stop-color="#08161E" />
    </linearGradient>
    <linearGradient id="tealGlow" x1="0" y1="0" x2="1" y2="1">
      <stop offset="0" stop-color="#53F0DC" stop-opacity="0.95" />
      <stop offset="1" stop-color="#1C7D80" stop-opacity="0.25" />
    </linearGradient>
    <linearGradient id="coralGlow" x1="0" y1="0" x2="1" y2="1">
      <stop offset="0" stop-color="#FF7A73" stop-opacity="0.9" />
      <stop offset="1" stop-color="#703433" stop-opacity="0.18" />
    </linearGradient>
    <filter id="blur" x="-20%" y="-20%" width="140%" height="140%">
      <feGaussianBlur stdDeviation="35" />
    </filter>
  </defs>

  <rect width="1400" height="900" fill="none" />
  <ellipse cx="1080" cy="160" rx="160" ry="140" fill="#53F0DC" fill-opacity="0.18" filter="url(#blur)" />
  <ellipse cx="300" cy="730" rx="220" ry="160" fill="#FF7A73" fill-opacity="0.12" filter="url(#blur)" />

  <g opacity="0.25">
    <path d="M930 116H1318" stroke="#A4B6BF" stroke-width="1" />
    <path d="M930 160H1318" stroke="#A4B6BF" stroke-width="1" />
    <path d="M930 204H1318" stroke="#A4B6BF" stroke-width="1" />
    <path d="M930 248H1318" stroke="#A4B6BF" stroke-width="1" />
    <path d="M972 88V302" stroke="#A4B6BF" stroke-width="1" />
    <path d="M1056 88V302" stroke="#A4B6BF" stroke-width="1" />
    <path d="M1140 88V302" stroke="#A4B6BF" stroke-width="1" />
    <path d="M1224 88V302" stroke="#A4B6BF" stroke-width="1" />
  </g>

  <g transform="translate(250 120) rotate(-7 360 230)">
    <rect x="0" y="0" width="780" height="460" rx="28" fill="url(#panel)" stroke="#5BE7DA" stroke-opacity="0.18" />
    <rect x="0" y="0" width="780" height="52" rx="28" fill="#102833" />
    <circle cx="36" cy="26" r="7" fill="#FF7A73" />
    <circle cx="60" cy="26" r="7" fill="#F2F5EF" fill-opacity="0.45" />
    <circle cx="84" cy="26" r="7" fill="#53F0DC" fill-opacity="0.9" />

    <rect x="34" y="90" width="240" height="12" rx="6" fill="#53F0DC" fill-opacity="0.9" />
    <rect x="34" y="122" width="310" height="10" rx="5" fill="#F2F5EF" fill-opacity="0.28" />
    <rect x="34" y="148" width="270" height="10" rx="5" fill="#F2F5EF" fill-opacity="0.16" />
    <rect x="34" y="214" width="220" height="10" rx="5" fill="#53F0DC" fill-opacity="0.52" />
    <rect x="34" y="240" width="450" height="10" rx="5" fill="#F2F5EF" fill-opacity="0.18" />
    <rect x="34" y="266" width="380" height="10" rx="5" fill="#F2F5EF" fill-opacity="0.18" />
    <rect x="34" y="332" width="180" height="10" rx="5" fill="#FF7A73" fill-opacity="0.72" />
    <rect x="34" y="358" width="300" height="10" rx="5" fill="#F2F5EF" fill-opacity="0.18" />

    <rect x="520" y="86" width="220" height="310" rx="24" fill="#0D2029" stroke="#A4B6BF" stroke-opacity="0.12" />
    <rect x="548" y="118" width="128" height="16" rx="8" fill="#53F0DC" fill-opacity="0.86" />
    <rect x="548" y="156" width="158" height="54" rx="18" fill="#153743" />
    <rect x="568" y="174" width="92" height="10" rx="5" fill="#F2F5EF" fill-opacity="0.22" />
    <rect x="606" y="230" width="112" height="46" rx="16" fill="#234F5A" />
    <rect x="624" y="248" width="76" height="9" rx="4.5" fill="#F2F5EF" fill-opacity="0.25" />
    <rect x="548" y="300" width="160" height="12" rx="6" fill="#FF7A73" fill-opacity="0.82" />
    <rect x="548" y="332" width="130" height="10" rx="5" fill="#F2F5EF" fill-opacity="0.2" />
  </g>

  <g transform="translate(84 458) rotate(8 250 150)" opacity="0.9">
    <rect x="0" y="0" width="520" height="290" rx="28" fill="#091A23" stroke="#A4B6BF" stroke-opacity="0.12" />
    <rect x="36" y="42" width="160" height="16" rx="8" fill="url(#coralGlow)" />
    <rect x="36" y="88" width="190" height="14" rx="7" fill="#F2F5EF" fill-opacity="0.18" />
    <rect x="36" y="124" width="412" height="14" rx="7" fill="#F2F5EF" fill-opacity="0.12" />
    <rect x="36" y="160" width="320" height="14" rx="7" fill="#53F0DC" fill-opacity="0.26" />
    <rect x="36" y="214" width="118" height="14" rx="7" fill="#FF7A73" fill-opacity="0.55" />
    <rect x="172" y="214" width="144" height="14" rx="7" fill="#F2F5EF" fill-opacity="0.15" />
  </g>

  <path d="M636 346C714 314 790 296 876 286" stroke="url(#tealGlow)" stroke-width="3" stroke-linecap="round" stroke-dasharray="4 12" opacity="0.9" />
  <path d="M582 590C730 576 824 536 928 458" stroke="url(#coralGlow)" stroke-width="3" stroke-linecap="round" opacity="0.8" />
</svg>
