<svg width="1400" height="900" viewBox="0 0 1400 900" fill="none" xmlns="http://www.w3.org/2000/svg">
  <defs>
    <linearGradient id="surface" x1="0" y1="0" x2="1" y2="1">
      <stop offset="0" stop-color="#102A34" />
      <stop offset="1" stop-color="#08161E" />
    </linearGradient>
    <filter id="softBlur" x="-20%" y="-20%" width="140%" height="140%">
      <feGaussianBlur stdDeviation="24" />
    </filter>
  </defs>

  <rect width="1400" height="900" fill="none" />
  <ellipse cx="1040" cy="226" rx="160" ry="120" fill="#53F0DC" fill-opacity="0.14" filter="url(#softBlur)" />
  <ellipse cx="1210" cy="678" rx="180" ry="120" fill="#FF7A73" fill-opacity="0.1" filter="url(#softBlur)" />

  <g opacity="0.25">
    <path d="M0 648H1400" stroke="#A4B6BF" stroke-width="1" />
    <path d="M0 706H1400" stroke="#A4B6BF" stroke-width="1" />
    <path d="M0 764H1400" stroke="#A4B6BF" stroke-width="1" />
  </g>

  <g transform="translate(558 214) rotate(7 320 230)" opacity="0.86">
    <rect x="0" y="0" width="660" height="430" rx="32" fill="url(#surface)" stroke="#A4B6BF" stroke-opacity="0.16" />
    <rect x="30" y="32" width="600" height="320" rx="24" fill="#0A1A23" stroke="#53F0DC" stroke-opacity="0.18" />
    <rect x="74" y="74" width="184" height="16" rx="8" fill="#53F0DC" fill-opacity="0.86" />
    <rect x="74" y="112" width="250" height="12" rx="6" fill="#F2F5EF" fill-opacity="0.16" />
    <rect x="74" y="142" width="226" height="12" rx="6" fill="#F2F5EF" fill-opacity="0.12" />
    <rect x="74" y="220" width="510" height="10" rx="5" fill="#F2F5EF" fill-opacity="0.09" />
    <rect x="74" y="246" width="478" height="10" rx="5" fill="#53F0DC" fill-opacity="0.2" />
    <rect x="74" y="272" width="394" height="10" rx="5" fill="#F2F5EF" fill-opacity="0.12" />
  </g>

  <g transform="translate(324 480) rotate(-12 240 134)" opacity="0.75">
    <rect x="0" y="0" width="460" height="268" rx="24" fill="#102833" stroke="#A4B6BF" stroke-opacity="0.12" />
    <path d="M42 58H420" stroke="#A4B6BF" stroke-opacity="0.28" stroke-width="2" />
    <path d="M42 98H420" stroke="#A4B6BF" stroke-opacity="0.24" stroke-width="2" />
    <path d="M42 138H420" stroke="#A4B6BF" stroke-opacity="0.2" stroke-width="2" />
    <path d="M42 178H310" stroke="#FF7A73" stroke-opacity="0.52" stroke-width="2" />
    <path d="M42 218H276" stroke="#53F0DC" stroke-opacity="0.44" stroke-width="2" />
  </g>

  <path d="M428 570C572 514 708 468 838 438" stroke="#53F0DC" stroke-opacity="0.48" stroke-width="3" stroke-dasharray="4 12" stroke-linecap="round" />
</svg>
